<svg width="218" height="75" viewBox="0 0 218 75" fill="none" xmlns="http://www.w3.org/2000/svg"><g clip-path="url(#a)"><path d="M43.378 15.197l2.929.58a124.605 124.605 0 0 1-.255 4.59s1.019-8.928-.153-12.231c-1.197-3.329-6.392-.53-6.392-.53.255.933.484 2.32.662 3.834l3.235 3.681-.026.076z" fill="#823C32"/><path d="M40.526 14.667c-.102-1.034-.204-2.143-.331-3.228l-1.656-1.916-1.044 1.614s.637 1.79 1.503 3.656c.025-.277.05-.428.05-.428l1.478.302z" fill="#823C32"/><path d="M43.378 15.197l.026-.076-3.235-3.682c.128 1.06.255 2.194.331 3.228l2.878.53zm2.674 5.169l-5.22-1.538s-.026-.378-.052-.958c-.636-.782-1.273-1.942-1.782-3.051-.306 2.698-2.038 17.324-6.19 27.587l7.438 4.439c2.546-6.532 4.94-14.98 5.806-26.479z" fill="#823C32"/><path d="M43.378 15.197l-1.452 3.631c-.382-.126-.764-.48-1.146-.958.051.605.051.958.051.958l5.221 1.538c.102-1.488.204-3 .255-4.59l-2.929-.58zm-2.852-.53l-1.503-.302s-.026.151-.051.428c.535 1.135 1.146 2.27 1.783 3.052-.026-.757-.128-1.917-.23-3.178z" fill="#823C32"/><path d="M41.926 18.828l1.452-3.631-2.852-.555c.127 1.286.203 2.446.254 3.203.382.504.764.857 1.146.983z" fill="#823C32"/><path d="M31.102 46.794c-.025.05-.025.076-.05.126.916.101 1.706.227 2.343.454.305.101.56.53.814 1.21.051.127.077.253.128.404.178.555.33 1.21.458 1.992.026.126.051.278.077.404.102.655.229 1.387.33 2.168.026.127.026.278.052.404a196 196 0 0 1 .229 2.169c1.12-1.236 2.394-3.203 3.667-6.33l-7.462-4.262c-.178.379-.357.782-.586 1.261z" fill="#F5B914"/><path d="M39.456 49.038c-.102.253-.204.53-.306.782l.153.076 1.58-2.673-.663-.404a27.54 27.54 0 0 1-.637 1.539L32.3 43.54c.153-.378.331-.756.484-1.16l-.484-.277-1.451 2.975.84.48c.306-.656.484-1.06.484-1.06l7.284 4.54z" fill="#336FAB"/><path d="M39.583 48.358c.204-.505.408-1.01.637-1.539l-7.437-4.438c-.153.378-.33.782-.484 1.16l7.284 4.817zm-.433 1.462a24.8 24.8 0 0 0 .306-.782L32.172 44.5s-.204.404-.484 1.06l7.462 4.261z" fill="#336FAB"/><path d="M27.231 46.794h.102l.866-1.563 1.757-.101c.051-1.715.153-5.523.178-9.028-.076.05-.178.1-.28.151-.713.303-1.044-.126-1.146-.756a.521.521 0 0 1-.382.151.563.563 0 0 1-.56-.555c0-.302.255-.555.56-.555.153 0 .28.05.357.127.05-.353.127-.707.255-.984.229-.53.534-1.16.942-1.463 0-.126 0-.252.025-.353-1.655.379-7.487.404-10.162-.05-.076.605-.229 1.79-.229 1.992 0 .025-.025.05-.025.076.382 1.134.28 2.9-.994 2.37-.05-.025-.101-.05-.178-.1-.153 3.252-.102 6.732-.025 8.825l8.404.353.535 1.463zm-4.864-11.953c0-.303.254-.555.56-.555.306 0 .56.252.56.555a.563.563 0 0 1-.56.555.563.563 0 0 1-.56-.555zm2.903 4.69c-1.961 0-2.547-1.992-2.547-1.992l.382-.1c.026.075.611 1.966 2.572 1.689 2.038-.277 2.93-2.017 2.93-2.043l.356.177c-.05.075-.993 1.916-3.235 2.244-.178 0-.33.025-.458.025z" fill="#823C32"/><path d="M24.277 48.912l-4.941-.756-1.757.025.025-.277-.611-.101.127-.48c-.382.026-.764.026-1.146.026.255.53.51 1.16.815 1.816l7.488-.253zm4.839 2.573l-11.257.201c.305.757.585 1.488.815 2.119l9.652-.127c.178-.58.459-1.336.79-2.193zm.968-2.345l-13.142.403c.254.58.51 1.16.738 1.74l11.563-.202c.28-.63.56-1.286.84-1.942zm.229-1.085l-4.661.025-.306.782 4.916-.151c.28-.63.56-1.236.79-1.79h-.128l-.662.403.05.73zm5.832 46.072c0 .807-.102 2.623-.23 4.64.485-.025.79-.177.79-.403 0-1.539.077-14.702-.356-27.286l-24.297.252c.153 8.045.433 17.804.433 28.698 0 .151.102.252.305.378.026-2.774.128-5.548.332-6.128.356-1.059 23.023-2.32 23.023-.151zM19.107 55.393c.025.303.025.63-.026.933l9.373-.1c-.255-.555-.332-1.186-.28-1.816 0-.101.025-.202.05-.328l-9.423.126c.178.505.28.933.306 1.185zm16.885 7.742l-24.067-.076c0 .782 0 1.589.025 2.396l24.195.328c-.05-.883-.102-1.766-.153-2.648zm.153 3.051l-24.195-.328c0 .883.025 1.816.025 2.75l24.272.251c0-.882-.051-1.765-.102-2.673zm-.331-6.203H11.975c-.025.857-.025 1.74-.025 2.673l24.042.075c-.076-.933-.127-1.866-.178-2.748zm.484 9.305l-24.272-.252c0 .63.026 1.26.026 1.916l24.297-.252a26.532 26.532 0 0 1-.051-1.412zm-.764-12.735H35.1c-1.503 1.438-2.75 1.589-3.49 1.564-1.451-.076-2.393-.681-2.928-1.488l-9.678.1c-.357 1.236-1.376 2.27-3.286 2.371-.79.05-2.088-.126-3.667-1.715A59.16 59.16 0 0 0 12 59.579h23.813c-.127-1.059-.204-2.068-.28-3.026z" fill="#F5B914"/><path d="M34.21 48.584c-.255-.68-.51-1.11-.816-1.21-.61-.227-1.4-.353-2.343-.454-.254.555-.509 1.16-.79 1.79l3.948-.126zm-5.884 5.095l6.877-.101a36.288 36.288 0 0 0-.331-2.169l-5.782.1c-.305.833-.585 1.59-.764 2.17zm-.102.403c-.025.126-.05.252-.05.328-.052.63.025 1.26.28 1.815l7.029-.075c-.076-.757-.153-1.488-.23-2.169l-7.029.101zm1.044-3.001l5.553-.1a27.135 27.135 0 0 0-.459-1.993l-4.253.126a56.54 56.54 0 0 0-.84 1.967zm2.318 7.036c.764.05 2.012-.126 3.49-1.564l-6.419.076c.535.807 1.477 1.412 2.93 1.488zm-4.228-11.323h-.102l.051.126.051-.126z" fill="#F5B914"/><path d="M36.272 68.885l-24.271-.253v.404l24.271.252v-.403zm-.127-3.102l-24.195-.328v.403l24.195.328v-.403zm-.178-3.051l-24.042-.076v.404l24.067.075c0-.126 0-.252-.025-.403zm-.204-3.152H11.95v.403h23.864c-.026-.126-.026-.278-.051-.404zm-.688-3.027h.433c0-.126-.026-.277-.051-.403-.102.151-.254.277-.382.403zm-15.994-.226c-.025.126-.05.277-.102.403l9.678-.1c-.076-.127-.152-.253-.203-.404l-9.373.1z" fill="#F5E6C3"/><path d="M35.483 56.15l-7.03.075c.052.126.128.278.204.404l6.418-.076c.128-.126.28-.252.408-.403zm-16.809-2.345c.05.151.102.277.127.403l9.423-.126c.026-.126.051-.252.102-.403l-9.652.126z" fill="#F5E6C3"/><path d="M28.224 54.082l7.03-.1c-.026-.127-.026-.278-.051-.404l-6.877.1c-.025.127-.076.278-.102.404zm1.044-3.001l-11.562.202c.05.126.102.277.178.403l11.257-.201c.026-.126.077-.252.128-.404z" fill="#F5E6C3"/><path d="M29.116 51.485l5.781-.101c-.025-.126-.05-.278-.076-.404l-5.552.101c-.051.151-.102.277-.153.404zm.968-2.345c.05-.127.127-.278.178-.404l-4.916.151-.076.202-.993-.151-7.488.226c.05.127.127.253.178.404l13.117-.429z" fill="#F5E6C3"/><path d="M30.084 49.14l4.253-.127c-.051-.151-.077-.277-.128-.403l-3.947.126c-.051.126-.128.252-.178.403zm6.265 21.535l-24.297.252v.404l24.297-.252v-.404z" fill="#F5E6C3"/><path d="M3.876 16.18l-.025-.075 3.234-3.682c.179-1.488.408-2.9.663-3.833 0 0-5.196-2.8-6.393.53-1.171 3.303-.153 12.23-.153 12.23a126.192 126.192 0 0 1-.254-4.615l2.928-.555zm4.381-.857s.025.151.05.403a41.106 41.106 0 0 0 1.478-3.606l-1.044-1.614-1.656 1.917a71.86 71.86 0 0 0-.33 3.203l1.502-.303z" fill="#823C32"/><path d="M3.876 16.18l2.853-.554c.102-1.034.204-2.144.331-3.203l-3.235 3.682.051.075zm4.431-.454c-.534 1.135-1.171 2.295-1.808 3.102-.05.605-.05.984-.05.984L1.226 21.35c.866 11.499 3.26 19.922 5.832 26.428l7.463-4.413C10.319 33.05 8.588 18.349 8.307 15.726z" fill="#823C32"/><path d="M6.474 18.828c-.382.48-.79.858-1.171.984L3.876 16.18l-2.929.555c.051 1.589.153 3.127.255 4.615l5.221-1.538s.026-.379.051-.984zm.255-3.202c-.127 1.286-.204 2.446-.255 3.202.637-.807 1.274-1.967 1.808-3.101a6.818 6.818 0 0 0-.05-.404l-1.503.303z" fill="#823C32"/><path d="M3.877 16.18l1.426 3.632c.382-.126.79-.505 1.171-.984.051-.781.128-1.916.255-3.202l-2.852.554zm14.415 17.35c.05-.303.05-.883.05-1.412-.28-.152-.585-.152-.967.1-.968.656-.28 3.228.942 3.934.026-.781.076-1.563.153-2.294-.127-.076-.204-.177-.178-.328z" fill="#823C32"/><path d="M19.489 33.883c-.128.151-.713.176-1.02-.025-.05.731-.101 1.513-.152 2.294.051.026.102.076.178.101 1.274.53 1.376-1.235.994-2.37zm10.671-.227v.05c.025.202.025.328 0 .429v1.967c1.171-.782 1.783-3.253.84-3.883-.28-.177-.509-.228-.738-.177-.051.227-.077.555-.102.883v.73z" fill="#823C32"/><path d="M30.16 34.135c-.076.353-.331.202-.331-.075 0-.253.05-1.186.076-1.841-.407.302-.713.933-.942 1.462-.127.303-.204.63-.255.984.128.1.204.252.204.428a.592.592 0 0 1-.178.404c.102.63.433 1.034 1.146.756.102-.05.178-.1.28-.15v-1.968zm0-.479v-.731a3.503 3.503 0 0 0 0 .731z" fill="#823C32"/><path d="M23.487 34.841a.562.562 0 0 0-.56-.555.562.562 0 0 0-.56.555c0 .303.254.555.56.555.306 0 .56-.252.56-.555zm5.221-.176a.612.612 0 0 0-.356-.126.562.562 0 0 0-.56.554.562.562 0 0 0 .942.404 2.97 2.97 0 0 1-.026-.832z" fill="#333"/><path d="M28.912 35.093c0-.176-.077-.302-.204-.428a4.55 4.55 0 0 0 0 .832.524.524 0 0 0 .204-.404z" fill="#333"/><path d="M28.657 46.794l-.051-.151c-.127.05-.28.1-.407.151h.458zm-1.961-1.463l-.56 1.488c.382 0 .738-.025 1.12-.025l-.56-1.462z" fill="#F5B914"/><path d="M28.199 46.794c.153-.05.28-.1.407-.151l-.382-1.412-.866 1.563h.84zm-10.646 1.362l1.757-.025-1.732-.252-.025.277zm8.277-.58l-.203.504 4.66-.025-.05-.757-1.274.757-.331-1.26h-.459c-.662.251-1.477.529-2.343.78z" fill="#F5B914"/><path d="M28.199 46.794h-.84l-.077.126-.05-.126c-.357 0-.74.025-1.122.025l-.28.757a37.11 37.11 0 0 0 2.369-.782z" fill="#F5B914"/><path d="M17.73 44.953l-.636 2.345c.178 0 .331-.025.51-.025l.126-2.32zm7.922 3.127l-1.936.025c-1.426.278-2.801.353-3.82.026h-.56l4.94.756 1.07-.025.306-.782z" fill="#336FAB"/><path d="M17.578 47.879l.025-.606c-.178 0-.33.026-.509.026l-.127.479.61.1zm6.138.226l-3.82.026c.993.327 2.394.252 3.82-.026zm1.63.757l-1.07.05.994.152.076-.202zm-6.698-1.639a2.208 2.208 0 0 1-.305-1.135c-.026-.303-.026-.68-.051-1.11l-.56-.025-.128 2.32c.331-.025.688-.025 1.044-.05z" fill="#336FAB"/><path d="M18.648 47.223c2.343-.126 4.992-.328 7.462-.404l.56-1.487-8.404-.354c.026.43.026.807.051 1.11.051.454.153.832.331 1.135z" fill="#336FAB"/><path d="M18.648 47.223c-.356.025-.713.05-1.044.05l-.026.605 1.758.278h.56c-.535-.202-.968-.48-1.248-.933zm5.068.882l1.936-.025.204-.504c-.713.202-1.427.403-2.14.53z" fill="#336FAB"/><path d="M19.896 48.13l3.82-.025c.714-.126 1.427-.327 2.114-.53l.28-.756c-2.47.076-5.119.278-7.462.404.28.454.713.731 1.248.908zm11.028-1.235l.178-.101v-.025l-.993-1.664.102 1.714c.28.05.51.076.713.076z" fill="#336FAB"/><path d="M30.923 46.895c-.229-.025-.458-.05-.687-.05l.026.453.661-.403zm-2.317-.252l.051.151c.56 0 1.096.025 1.58.05l-.102-1.714h-.153c-.026.605-.026.958-.026.958s-.535.227-1.35.555z" fill="#336FAB"/><path d="M28.606 46.643c.815-.328 1.35-.555 1.35-.555s0-.353.026-.958l-1.758.1.382 1.413zm1.656.655l-.026-.454a32.232 32.232 0 0 0-1.579-.05l.331 1.26 1.274-.756z" fill="#336FAB"/><path d="M12.077 56.402a48.74 48.74 0 0 1 .128-2.093c0-.126.025-.277.025-.404a36.5 36.5 0 0 1 .255-2.093c.025-.126.05-.277.076-.403.102-.656.255-1.21.408-1.715.05-.151.102-.277.127-.403.459-1.261 1.095-1.917 1.936-1.917h.942a8.194 8.194 0 0 0-.382-.807L8.13 50.83c1.375 3.379 2.7 5.396 3.896 6.607 0-.202.026-.379.026-.58 0-.202 0-.328.025-.454z" fill="#F5B914"/><path d="M17.859 51.686l-5.374.101a36.5 36.5 0 0 0-.255 2.093l6.444-.1c-.23-.606-.51-1.337-.815-2.094zm-.917-2.143l-3.973.126c-.153.504-.28 1.06-.408 1.715l5.12-.101c-.23-.58-.485-1.16-.74-1.74zm-3.846-.277l3.668-.127c-.28-.655-.56-1.26-.816-1.815h-.942c-.815.025-1.451.68-1.91 1.942zm2.598 9.834c1.91-.1 2.929-1.135 3.285-2.37l-6.927.076c0 .201-.026.378-.026.58 1.58 1.588 2.878 1.765 3.668 1.714zm3.413-3.707c-.026-.252-.128-.68-.306-1.185l-6.596.101a48.74 48.74 0 0 0-.128 2.093l7.004-.076c.051-.302.051-.63.026-.933z" fill="#F5B914"/><path d="M12.077 56.402c0 .126 0 .277-.025.403l6.927-.075c.026-.126.077-.278.102-.404l-7.004.076zm6.597-2.597l-6.444.1c0 .127-.025.278-.025.404l6.596-.101a2.47 2.47 0 0 0-.127-.403zm-.994-2.522l-5.119.1c-.025.127-.05.278-.076.404l5.374-.1a4.92 4.92 0 0 0-.179-.404zm-.916-2.143l-3.668.126a2.5 2.5 0 0 0-.127.403l3.973-.126c-.051-.126-.102-.277-.178-.404z" fill="#F5B914"/><path d="M15.108 45.483s.178.403.484 1.034l.815-.454-1.452-2.976-.458.277c.153.379.305.757.484 1.135l-7.31 4.817c-.204-.505-.407-1.009-.636-1.538l-.663.403 1.58 2.698.178-.1-.306-.757 7.284-4.54z" fill="#336FAB"/><path d="M14.98 44.5c-.152-.379-.33-.757-.483-1.136l-7.463 4.414c.204.53.408 1.033.637 1.538l7.31-4.817zm.612 2.017c-.306-.63-.484-1.034-.484-1.034l-7.284 4.539.306.756 7.462-4.261z" fill="#336FAB"/><path d="M19.896 28.108c2.012-1.967 9.602-1.84 10.06.984.077.504.128 1.387.178 2.496l.204.05s0 .026-.025.051c.025-.025.05-.05.05-.076-.177-.706.179-8.246.179-9.154 0-.907-11.792-.907-11.97-.176-.178.706-.255 6.203-.204 8.977v.025l.408.051c.254-1.538.61-2.723 1.12-3.228z" fill="#333"/><path d="M30.135 31.588c-.026-1.11-.077-1.992-.179-2.496-.458-2.825-8.048-2.95-10.06-.984-.51.505-.866 1.69-1.12 3.228l1.018.126s-.025.151-.05.353c2.7.429 8.506.404 10.161.05 0-.201.026-.302.026-.302l.204.025zm-.001.479c.051-.025.077-.025.128-.025.025-.151.05-.277.076-.353-.05.025-.102.076-.204.1v.278z" fill="#333"/><path d="M30.134 31.79a.483.483 0 0 1-.203.05c0 .101 0 .227-.026.353.077-.05.153-.1.23-.126v-.277z" fill="#333"/><path d="M30.16 32.925c.025-.328.076-.656.102-.883-.051 0-.077.025-.128.025 0 .278 0 .555.026.858zm0 .781v-.05.479c.025-.1.025-.227 0-.429z" fill="#333"/><path d="M30.16 34.135v-.48a3.519 3.519 0 0 1 0-.73c0-.303 0-.58-.026-.858-.076.025-.153.076-.229.126-.025.656-.076 1.614-.076 1.841 0 .328.254.48.33.101zm-.026-2.547v.202a.385.385 0 0 0 .204-.101c0-.05.025-.05.025-.05l-.229-.05zm0 0l-.203-.05s0 .126-.026.302c.077-.025.153-.025.204-.05.025-.076.025-.126.025-.202zm-11.41-.025c-.204-.076-.33-.177-.356-.277h-.025v.832c.101.05.203.126.28.227.05-.278.076-.53.101-.782z" fill="#333"/><path d="M18.623 32.345c.33.328.585.882.79 1.336.025.05.05.126.076.202.025-.025.025-.05.025-.076 0-.201.153-1.387.23-1.992-.434-.076-.765-.151-1.02-.252-.025.252-.05.504-.101.782zm-.153 1.513c.05-.53.101-1.034.152-1.514a2.702 2.702 0 0 0-.28-.226c0 .504-.025 1.11-.05 1.412-.026.151.05.252.178.328z" fill="#333"/><path d="M18.623 32.344c-.051.48-.102.984-.153 1.514.306.176.866.15 1.019.025-.026-.076-.051-.126-.077-.202-.204-.48-.458-1.009-.79-1.337zm.101-.781c0-.076.025-.151.025-.227l-.406-.05c.05.1.177.201.381.277zm.052-.227c0 .076-.026.151-.026.227.23.1.586.176 1.019.252.025-.202.05-.353.05-.353l-1.043-.126zm10.187 5.926l-.357-.176c0 .025-.89 1.765-2.928 2.042-1.962.278-2.547-1.614-2.573-1.69l-.382.101s.586 1.993 2.547 1.993c.127 0 .28-.026.459-.026 2.24-.327 3.183-2.168 3.234-2.244z" fill="#333"/><path d="M57.462 64.976c.892-2.648 5.476-14.828 5.476-25.974 0-1.21 4.177-1.11 4.202.126.077 2.623-1.044 21.712-4.788 29.1-.713 1.413-5.246-2.193-4.89-3.252z" fill="#DC6E2D"/><path d="M62.938 38.977s.84-6.733.51-8.776c-1.172-2.345 3.87-2.017 4.89 1.135.712 2.22-1.172 7.742-1.172 7.742l-4.228-.101z" fill="#DC6E2D"/><path d="M65.663 35.472l-3.209-4.161-.993.882s1.146 4.69 2.648 5.447l1.554-2.168z" fill="#DC6E2D"/><path d="M59.703 73.777c1.962-2.144 4.28-8.398 4.84-11.449l-5.45-2.42c-1.452 2.874-5.018 7.59-6.648 9.935-1.477 2.093 5.705 5.623 7.258 3.934z" fill="#333"/><path d="M35.228 69.313c4.024-2.648 22.489-4.488 24.5-.908 1.987 3.581-1.069 27.538-1.63 30.362-.177.908-19.763 1.084-19.966.177-1.172-5.8-5.069-28.193-2.904-29.63z" fill="#333"/><path d="M38.921 44.121c-1.579 1.69-2.903 10.667-1.935 14.475.993 3.808 9.245 4.262 13.727 4.337 4.483.076 5.247.959 5.858-2.244 2.47-12.937.102-14.525-3.973-16.669-4.05-2.143-12.403-1.26-13.677.101z" fill="#F5B914"/><path d="M42.334 44.399c-2.216 2.143-6.342 8.952-.586 14.222 5.756 5.27 9.678 2.774 12.276-.277 2.598-3.052 3.413-9.709.484-13.441-2.955-3.732-9.449-3.127-12.174-.504z" fill="#DC6E2D"/><path d="M41.06 51.712c.31 0 .56-.249.56-.555a.557.557 0 0 0-.56-.555.557.557 0 0 0-.56.555c0 .306.251.555.56.555zm5.553.68c.309 0 .56-.248.56-.554a.558.558 0 0 0-.56-.555c-.31 0-.56.248-.56.555 0 .306.25.554.56.554z" fill="#333"/><path d="M38.31 68.86c-.637-2.724-3.948-16.341-2.7-29.48.128-1.437-4.024-2.042-4.202-.605-.382 3.077-1.299 25.142 1.732 32.858.56 1.488 5.425-1.664 5.17-2.774z" fill="#DC6E2D"/><path d="M35.584 39.38s3.031-6.077 4.483-8.07c0 0-3.77-1.865-5.578.228-1.808 2.068-3.132 7.237-3.132 7.237l4.227.605z" fill="#DC6E2D"/><path d="M34.923 35.724L40.55 33l.56 1.463s-3.59 3.858-5.577 3.833l-.611-2.572z" fill="#DC6E2D"/><path d="M35.278 80.762c-2.19-5.245-3.947-13.97-3.82-17.375l5.298-2.143c.229.983 2.164 5.043 3.54 7.287 3.107 4.968-3.642 15.51-5.018 12.23z" fill="#333"/><path d="M43.862 57.41c0 1.64 1.044 7.868 1.044 9.659 0 1.79 6.393 1.715 6.189.075-.204-1.639-.255-8.321-.484-9.607-.255-1.312-6.749-2.118-6.749-.126z" fill="#DC6E2D"/><path d="M40.195 46.466c1.171 1.01 4.991 4.161 8.863 4.035 3.87-.126 4.584 2.018 3.845 5.044-.738 3.026 1.325 4.942 2.7 5.8 2.063 1.286 3.438-12.609 1.273-16.14-2.19-3.53-11.562-4.539-15.383-2.849-3.794 1.69-2.903 2.723-1.298 4.11z" fill="#F5B914"/><path d="M46.765 55.318c-1.732 0-3.132-1.387-3.132-3.102 0-1.715 1.4-3.102 3.132-3.102 1.732 0 3.133 1.387 3.133 3.102 0 1.715-1.4 3.102-3.133 3.102zm0-5.901a2.78 2.78 0 0 0-2.801 2.774 2.78 2.78 0 0 0 2.801 2.774 2.78 2.78 0 0 0 2.802-2.774c0-1.513-1.248-2.774-2.802-2.774zM39.94 54.51c-1.732 0-3.133-1.386-3.133-3.101s1.401-3.102 3.133-3.102 3.133 1.387 3.133 3.102c0 1.715-1.376 3.102-3.133 3.102zm0-5.875a2.78 2.78 0 0 0-2.802 2.774 2.78 2.78 0 0 0 2.802 2.774 2.78 2.78 0 0 0 2.801-2.774 2.78 2.78 0 0 0-2.801-2.774z" fill="#F6E6CA"/><path d="M42.938 51.524l-.024.352.813.053.024-.352-.813-.053z" fill="#F6E6CA"/><path d="M44.83 57.562c-.993 0-2.063-.303-3.082-1.185l.255-.303c3.158 2.724 6.698-.454 6.749-.504l.255.277c0 .025-1.885 1.715-4.177 1.715z" fill="#333"/><path d="M55.22 79.677c-1.145-7.716.714-19.896 3.312-23.326 3.463-4.564 17.853-4.287 23.634-3.707 5.782.58 8.863.934 12.123 7.717 3.184 6.632 3.311 15.61 3.311 15.61s-14.11 1.966-22.718 2.622c-11.257.883-19.661 1.084-19.661 1.084z" fill="#00966E"/><path d="M75.086 61.9c-8.353 0-15.408-.455-15.535-.455l.025-.378c.204.025 21.776 1.362 34.255-.68l.077.377c-5.4.883-12.48 1.135-18.822 1.135zm-2.419 4.362h-.306c-7.59 0-13.982-.379-14.058-.379l.025-.378c.051 0 6.444.353 14.033.378h.306c9.856 0 17.293-.605 21.47-1.74l.102.379c-5.298 1.412-14.594 1.74-21.572 1.74z" fill="#333"/><path d="M69.56 51.358c-1.987.429-1.63 2.144-1.452 3.581.178 1.438 3.438 3.051 7.615 2.698 4.177-.353 8.354-1.084 8.532-2.698.178-1.614.178-3.228-.535-4.136-.738-.882-7.462-.882-14.16.555z" fill="#00966E"/><path d="M80.308 35.522c1.222 2.017 2.572 15.912 2.572 18.585 0 .404-5.17 1.21-12.938 1.21-.815 0-1.095-6.052-1.35-11.045-.204-3.833-1.936-8.775 3.668-10.364 5.603-1.589 7.385.555 8.048 1.614z" fill="#F08264"/><path d="M68.312 37.413c.153-.68 3.005-.277 3.26 1.085.254 1.361-2.343 3.404-3.26 3.101-.408-.151-.255-2.975 0-4.186zm7.004 3.833c-1.096.05-2.089.555-2.776 1.79 0 0 2.012.102 2.928-.504 0 0 2.216.555 3.133-.201 0 0-.968-1.186-3.285-1.085zm-2.522-1.614a.38.38 0 0 0 .382-.378.38.38 0 0 0-.382-.378.38.38 0 0 0-.382.378.38.38 0 0 0 .382.378zm4.33-.429a.38.38 0 0 0 .382-.378.38.38 0 0 0-.382-.378.38.38 0 0 0-.382.378.38.38 0 0 0 .382.378z" fill="#333"/><path d="M68.949 40.843c-.28-.732-.79-1.64-1.58-1.135-.789.53-.178 2.673.867 3.102 1.044.454 1.044-1.11.713-1.967z" fill="#F08264"/><path d="M73.507 44.121s2.547 2.143 4.177-.353l-4.177.353z" fill="#F5E6C3"/><path d="M68.44 53.124c-11.614.353-15.588-10.592-11.258-24.965l-7.437-1.967s-8.15 26.05 10.697 36.287l7.997-9.355zm15.688-.227c2.725.277 14.695-6.86 4.355-24.385l6.8-2.825s16.198 22.898-3.668 33.262l-7.487-6.052z" fill="#00966E"/><path d="M95.283 25.662s-3.26-6.33-2.725-8.347l-5.705.807s-.942 6.86 1.63 10.364l6.8-2.824z" fill="#F08264"/><path d="M88.356 24.729l-3.82-1.084.28 1.89 3.667 2.977-.127-3.783zm-31.174 3.429s1.91-7.867.815-10.137l-7.208-.126s-.28 6.733-1.044 8.296l7.437 1.967z" fill="#F08264"/><path d="M56.775 25.536l3.132-2.144.968 1.892-3.693 2.875-.407-2.623z" fill="#F08264"/><path d="M80.868 37.212s-.917.176-1.095 1.084c-.178.908 1.63 1.967 1.63 1.967s-.255-1.967-.535-3.051z" fill="#333"/><path d="M80.69 40.086s.178-2.067 1.171-1.714c.993.353.28 3.505-.738 3.959-1.02.454-.535-1.438-.433-2.245z" fill="#F08264"/><path d="M134.199 19.105s3.846-2.546 5.679-2.546c1.834 0-.178 1.992-.178 1.992s3.489.908 4.584 1.815c1.096.908-.916 1.64-.916 1.64s5.322 1.639 5.322 3.454c0 1.816-2.012.908-2.012.908s3.668 4.716 4.228 7.44c.561 2.723-1.477.176-1.477.176s1.477 4.186.178 7.439c-1.273 3.278-2.19 0-2.19 0s-2.751 3.984-4.228 4.715c-1.477.732-6.239 1.085-6.978-3.076-.713-4.16-4.559-19.417-2.012-23.956z" fill="#333"/><path d="M135.676 18.374s-4.584-2.547-6.978-1.26c-2.394 1.26 1.477 2.168 1.477 2.168s-5.858.555-7.513 2.9c-1.656 2.37 2.19 1.816 2.19 1.816s-5.145 3.278-6.061 5.094c-.917 1.815 2.394 1.084 2.394 1.084s-1.274 4.54-1.274 6.91 2.012.907 2.012.907 1.095 6.179 2.929 6.179c1.834 0 2.19-1.261 2.19-1.261s.561 2.169 2.394 2.723c1.834.555 5.858.908 6.775-2.547.942-3.48 2.572-22.166-.535-24.713z" fill="#333"/><path d="M143.189 43.693c2.751-.278 12.098-4.64 2.471-18.787-9.627-14.172-20.349-3.53-23.941 4.085-3.591 7.615 1.936 14.702 9.347 15.256 7.412.555 9.373-.277 12.123-.554z" fill="#333"/><path d="M130.71 38.927c-2.573-3.33-3.77-7.49.968-12.155 4.762-4.665 8.175-2.648 10.467-.126 2.292 2.521 2.955 7.792-.484 11.827-2.623 3.101-8.965 3.026-10.951.454z" fill="#823C32"/><path d="M139.624 31.916c.38 0 .687-.305.687-.68a.684.684 0 0 0-.687-.682.684.684 0 0 0-.688.681c0 .376.308.681.688.681zm-6.775-.479c.38 0 .688-.305.688-.68a.684.684 0 0 0-.688-.682.684.684 0 0 0-.687.681c0 .376.307.681.687.681zm4.941-6.229s-1.197 2.774-3.209 3.278c-2.012.505-1.35-1.008-1.35-1.008s-3.387 4.01-4.559 3.354c-1.171-.656-.687-2.522-.687-2.522s-2.7 5.018-4.05 4.186c-1.35-.832 1.528-12.735 6.928-12.886 5.399-.177 10.518.252 6.927 5.598z" fill="#333"/><path d="M136.033 25.082s2.699 4.186 4.559 4.01c1.859-.177 1.018-1.665 1.018-1.665s1.86 4.514 2.878 3.505c1.019-1.008-.687-8.195-5.399-9.885-4.737-1.664-4.916 2.37-3.056 4.035z" fill="#333"/><path d="M140.974 39.81l-.765 41.078-12.428-.252s.586-38.507 2.037-40.575c1.427-2.093 8.023.252 11.156-.252z" fill="#F5E6C3"/><path d="M140.77 42.986s-.942 37.297-1.477 40.55c0 0 7.462 21.006 8.277 16.946.815-4.085.025-55.73.025-55.73l-6.825-1.766zm-7.259-.479c-1.095 3.253-1.91 35.33-1.655 41.306 0 0-11.436 19.67-11.716 13.139-.28-6.532-.917-49.83.459-52.276 1.375-2.446 12.912-2.169 12.912-2.169z" fill="#F5B914"/><path d="M126.533 14.415s2.114-6.254 3.566-8.422c0 0-4.407-3.455-6.215-1.16-1.808 2.294-2.623 9.481-2.623 9.481l5.272.101z" fill="#823C32"/><path d="M124.852 10.885l5.807-3.152.687 1.538s-3.743 4.816-5.857 4.892l-.637-3.278z" fill="#823C32"/><path d="M127.934 50.224c-.586-8.473-1.401-35.809-1.401-35.809l-5.298-.1s-1.349 28.646-1.4 34.42c-.051 5.776 8.608 8.978 8.099 1.489z" fill="#F5B914"/><path d="M131.143 68.103l-1.783-19.922 3.413-4.993.331.227-3.362 4.867 1.783 19.77-.382.051zm9.245.782l-.382-.101 4.049-19.518-2.521-5.523.356-.177 2.573 5.65-.026.075-4.049 19.594z" fill="#336FAB"/><path d="M134.51 42.42l-.01.377 4.939.134.01-.378-4.939-.134z" fill="#333"/><path d="M138.072 33.202s-2.445-1.084-4.253.278c0 0 2.165.453 4.253-.278z" fill="#D24114"/><path d="M138.019 33.48s-.535 1.664-1.986 1.664c-1.452 0-2.267-1.387-2.267-1.387 1.579.378 3.005.277 4.253-.277z" fill="#D24114"/><path d="M143.215 10.305s-1.681-6.38-3.006-8.65c0 0 4.636-3.152 6.266-.756 1.655 2.42 2.012 9.658 2.012 9.658l-5.272-.252z" fill="#823C32"/><path d="M145.125 6.9l-5.603-3.53-.764 1.488s3.413 5.043 5.501 5.27l.866-3.228z" fill="#823C32"/><path d="M140.999 44.979c1.146-8.423 2.216-34.7 2.216-34.7l5.272.253s-.561 28.672-.917 34.447c-.331 5.75-7.59 7.439-6.571 0z" fill="#F5B914"/><path d="M146.093 24.981c-.586-2.017-1.401-8.271-1.401-8.271s4.89-.202 5.909.202c1.018.403 1.146 7.893 1.146 7.893l-5.654.176z" fill="#F08264"/><path d="M152.307 23.998l1.223-4.287-1.376-.53-1.579 4.464 1.732.353z" fill="#F08264"/><path d="M145.278 29.37s-.229-3.884-.229-5.17c0-1.287 7.08-1.11 7.258.025.331 2.143.841 5.421.841 5.421l-7.87-.277z" fill="#285AA0"/><path d="M156.891 53.401c-.255-3.102-1.834-21.132-1.834-23.73.026-2.572-10.926-4.69-10.671-.831.229 3.883.891 35.884 1.171 38.607.255 2.698 1.809 1.06 5.705 1.337 3.897.302 5.858-12.533 5.629-15.383z" fill="#285AA0"/><path d="M172.937 37.187v11.7l-18.21.353.025-13.541 18.185 1.488z" fill="#333"/><path d="M160.355 50.678c2.42.176 11.843.781 13.269 1.588 1.426.807 1.426 5.977-.025 8.952-1.452 2.976-21.674 3.102-22.285-.756-.229-1.438-1.07-7.238-.051-8.12 1.885-1.64 4.228-1.992 9.092-1.664z" fill="#285AA0"/><path d="M160.228 51.384c2.598-.202 10.111.832 12.938 1.765 2.827.933-9.296.63-15.307-.303-6.036-.958-6.647-.806 2.369-1.462z" fill="#333"/><path d="M156.102 35.295c-2.114 3.48-1.936 12.306 2.725 14.424 4.661 2.119 11.665-.756 13.397-6.153 1.757-5.396-1.172-10.97-5.833-12.306-4.635-1.361-9.117 2.093-10.289 4.035z" fill="#F08264"/><path d="M156.229 39.456c-.433-1.059-1.171-2.42-2.317-1.664-1.172.756-.255 3.959 1.299 4.59 1.528.655 1.528-1.64 1.018-2.926zm3.948 10.264l-.28 3.53s4.279.53 6.189.429l.687-5.321-6.596 1.362z" fill="#F08264"/><path d="M167.563 37.54s2.088 3.606 5.221 4.286c0 0 .178-5.32-.866-6.707-1.07-1.362-4.355 2.42-4.355 2.42z" fill="#333"/><path d="M161.934 53.653c5.858.353 17.472 1.942 18.261 13.542.79 11.6 3.948 58.857 3.948 58.857s-30.486-.378-40.24-3.101c0 0 1.4-48.77 1.604-54.293.357-9.457 10.188-15.408 16.427-15.005z" fill="#285AA0"/><path d="M163.207 66.943c0-.076-.178-7.59-.178-8.6h.382c0 1.01.178 8.524.178 8.6h-.382zm-8.981-9.281l-.381.018.341 7.557.381-.017-.341-7.558z" fill="#00966E"/><path d="M164.201 44.323s-2.241-1.236-4.075-.1c-.026-.026 2.012.604 4.075.1z" fill="#D24114"/><path d="M164.125 44.575s-.663 1.538-2.038 1.412c-1.375-.126-2.037-1.513-2.037-1.513 1.477.505 2.827.505 4.075.101zm8.939-5.825c-1.885.555-19.229.176-19.229-.782s.204-4.388 1.146-4.262c1.274.177 15.791-.126 17.319.202.917.202 1.426 4.64.764 4.842z" fill="#D24114"/><path d="M172.886 36.505c-.688-5.623-5.705-9.456-10.493-8.75-4.788.706-7.386 5.7-7.641 7.944l18.134.806z" fill="#D24114"/><path d="M166.213 40.843a.608.608 0 0 0 .611-.605.608.608 0 0 0-.611-.605.608.608 0 0 0-.611.605c0 .334.273.605.611.605zm-7.004.026a.608.608 0 0 0 .611-.606.608.608 0 0 0-.611-.605.608.608 0 0 0-.611.605c0 .335.273.606.611.606z" fill="#333"/><path d="M165.551 43.566c-1.63 0-2.955-1.31-2.955-2.925 0-1.715.892-2.85 2.547-3.303.841-.227 1.834 0 2.598.605.79.63 1.223 1.589 1.172 2.698-.077 1.564-1.63 2.925-3.362 2.925zm.255-5.95c-.204 0-.383.024-.561.075-1.502.403-2.267 1.387-2.267 2.95 0 1.412 1.172 2.572 2.598 2.572 1.503 0 2.904-1.235 2.955-2.572.051-.983-.331-1.84-1.019-2.395-.509-.404-1.121-.63-1.706-.63zm-7.361 5.95c-1.63 0-2.954-1.31-2.954-2.925 0-2.244.891-3.228 2.929-3.228 1.579 0 3.005 1.539 3.005 3.228a2.981 2.981 0 0 1-2.98 2.925zm-.051-5.8c-2.241 0-2.547 1.387-2.547 2.875 0 1.412 1.172 2.572 2.598 2.572s2.598-1.16 2.598-2.572c0-1.513-1.274-2.875-2.649-2.875z" fill="#333"/><path d="M162.775 40.44h-1.554v.378h1.554v-.378z" fill="#333"/><path d="M169.931 39.456c.433-1.059 1.172-2.42 2.318-1.664 1.172.756.255 3.959-1.299 4.59-1.553.655-1.553-1.64-1.019-2.926zm9.908-14.475c.585-2.017 1.4-8.271 1.4-8.271s-4.89-.202-5.908.202c-1.019.403-1.146 7.893-1.146 7.893l5.654.176z" fill="#F08264"/><path d="M173.65 23.998l-1.248-4.287 1.375-.53 1.605 4.464-1.732.353z" fill="#F08264"/><path d="M180.654 29.37s.229-3.884.229-5.17c0-1.287-7.08-1.11-7.259.025-.331 2.143-.84 5.421-.84 5.421l7.87-.277z" fill="#285AA0"/><path d="M169.218 58.57c.255-3.1 1.681-26.3 1.681-28.873-.025-2.572 10.926-4.69 10.672-.832-.255 3.858-1.121 35.632-1.376 38.33-.254 2.698-2.98 2.673-6.902 2.976-3.896.252-4.329-8.776-4.075-11.6z" fill="#285AA0"/><path d="M125.03 39.935s-.967-6.002-1.961-8.22c0 0 4.534-2.497 5.833-.127 1.298 2.37.967 9.053.967 9.053l-4.839-.706z" fill="#F08264"/><path d="M127.119 36.985l-4.839-3.758-.841 1.286s2.674 4.943 4.585 5.346l1.095-2.874z" fill="#F08264"/><path d="M118.281 72.39c1.834-7.641 6.749-32.455 6.749-32.455l4.839.706s-3.947 32.304-4.788 37.574c-.84 5.245-8.43.933-6.8-5.825z" fill="#F5E6C3"/><path d="M122.636 63.538c3.286 1.539 1.758 5.17 2.216 7.994.458 2.825-.357 13.24-1.783 16.846 0 0-19.178.907-24.832-3.707 0 0-5.628-15.358-3.82-18.914 1.808-3.555 6.011-5.169 8.456-5.673 2.47-.505 10.314-.984 19.763 3.454z" fill="#F5E6C3"/><path d="M118.51 42.658c2.573 1.614 4.305 6.027 3.795 10.541-1.324 11.752-1.783 16.568-1.783 16.568L100.759 62s0-7.288 1.528-14.828c1.528-7.514 10.646-8.019 16.223-4.514z" fill="#D24114"/><path d="M106.871 58.52c-2.114-1.891-6.087-8.019-.968-13.037 5.12-5.018 8.787-2.85 11.258-.126 2.47 2.723 3.438 8.8.865 12.331-2.572 3.505-8.557 3.177-11.155.832z" fill="#F08264"/><path d="M103.917 48.332c2.878-1.034 9.958-3 15.077.48-.407-1.362-1.044-2.573-1.833-3.455-2.471-2.724-6.164-4.892-11.258.126-.967.908-1.604 1.891-1.986 2.85z" fill="#F5E6C3"/><path d="M114.334 49.745a.633.633 0 0 0 .636-.63.633.633 0 0 0-.636-.631.634.634 0 0 0-.637.63c0 .348.285.63.637.63zm-6.266.353a.634.634 0 0 0 .637-.63.634.634 0 0 0-.637-.631.633.633 0 0 0-.636.63c0 .348.285.63.636.63zm3.693 4.387h-.153c-1.63-.126-1.706-1.538-1.706-1.538h.382-.204.204c0 .05.051 1.084 1.324 1.185 1.299.101 1.554-1.185 1.554-1.235l.382.075c-.076.505-.586 1.513-1.783 1.513z" fill="#333"/><path d="M95.41 37.186s1.044-6.001 2.063-8.195c0 0-4.508-2.547-5.833-.202-1.324 2.345-1.095 9.053-1.095 9.053l4.865-.656z" fill="#F08264"/><path d="M93.373 34.21l4.864-3.68.841 1.31s-2.725 4.918-4.66 5.27l-1.045-2.9z" fill="#F08264"/><path d="M120.853 63.387s-5.144 9.154-9.958 10.163c-4.813 1.008-10.391-4.766-10.136-11.55 0 0 16.121-.58 20.094 1.387z" fill="#D24114"/><path d="M101.726 69.742c-1.732-7.666-6.316-32.53-6.316-32.53l-4.84.63s2.802 26.377 3.54 31.648c.765 5.27 9.144 7.01 7.616.252z" fill="#F5E6C3"/><path d="M211.929 22.888s-.459-8.17-1.299-11.247c0 0 5.221-2.774 6.393.53 1.171 3.303.127 12.23.127 12.23l-5.221-1.513z" fill="#F08264"/><path d="M214.501 19.181l-4.89-5.598-1.069 1.614s2.419 6.96 4.457 7.716l1.502-3.732zm-12.836 34.674c5.781-13.138 10.264-30.967 10.264-30.967l5.195 1.539c-.687 17.273-3.336 26.326-7.003 35.026-1.528 3.052-10.824 2.27-8.456-5.598z" fill="#F08264"/><path d="M207.421 62.076c4.431.176 8.201-13.996 8.201-13.996s-10.035-4.59-11.283-4.337c-1.248.252-3.642 11.02-2.776 13.92.866 2.875 3.769 4.337 5.858 4.413z" fill="#234B14"/><path d="M177.241 83.864s34.535 3 34.459.025c-.153-6.834-.153-28.37-1.503-29.757-6.265-6.53-22.998-8.548-29.594-1.664-1.732 1.79-3.54 25.42-3.362 31.396z" fill="#234B14"/><path d="M189.007 48.66s3.897 5.069 9.118 5.069 6.189-3.253 6.189-3.253.025-16.82.025-18.686c0-1.866-14.288-2.749-14.568-.277-.229 2.572-.764 17.147-.764 17.147zm-7.946-29.53s1.579-8.85 2.929-12.078c0 0-5.297-3.732-7.029-.252-1.732 3.48-1.783 13.34-1.783 13.34l5.883-1.01z" fill="#F08264"/><path d="M178.769 14.743l6.087-5.472.942 1.916s-3.565 7.263-5.908 7.818l-1.121-4.262zm9.321 39.541c-4.533-15.105-7.029-35.153-7.029-35.153l-5.883.983c-1.579 18.939.102 29.152 2.929 39.163 1.273 3.53 11.537 3.934 9.983-4.993z" fill="#F08264"/><path d="M180.73 62.505c-4.865-.404-7.055-16.366-7.055-16.366s11.588-3.707 12.887-3.253c1.299.453 3.795 12.734 2.445 15.786-1.35 3.05-5.985 4.01-8.277 3.833z" fill="#234B14"/><path d="M192.573 39.96c.323 0 .585-.26.585-.58 0-.32-.262-.58-.585-.58a.583.583 0 0 0-.586.58c0 .32.262.58.586.58zm7.411-.15c.324 0 .586-.26.586-.581 0-.32-.262-.58-.586-.58a.583.583 0 0 0-.586.58c0 .32.263.58.586.58z" fill="#333"/><path d="M203.117 37.892c.815-1.74 2.521-2.067 2.241.555-.28 2.648-.509 4.237-1.91 4.136-1.401-.1-.968-3.303-.331-4.69z" fill="#F08264"/><path d="M200.799 41.574s-3.897 3.228-7.615.177l7.615-.177z" fill="#F5E6C3"/><path d="M199.602 30.302c1.325.378-3.54 8.624-10.06 8.347-.535-1.488-.28-5.8.28-7.136.535-1.337 5.96-2.295 9.78-1.21z" fill="#285AA0"/><path d="M198.66 31.235s1.095 5.649 5.705 6.204c.407-3.102 0-4.716 0-5.65 0-.932-1.91-1.21-4.355-1.613-2.445-.403-2.165 0-1.35 1.06z" fill="#285AA0"/><path d="M190.433 37.892c-.815-1.74-2.521-2.067-2.241.555.28 2.648.51 4.237 1.91 4.136 1.452-.1.994-3.303.331-4.69z" fill="#F08264"/><path d="M204.942 63.707l-13.878.264.008.378 13.877-.264-.007-.378zm-13.872 4.119v-.379c.815 0 14.543-.504 14.695-.504l.026.378c-.586.025-13.906.505-14.721.505z" fill="#F5E6C3"/></g><defs><clipPath id="a"><path fill="#fff" transform="translate(.792)" d="M0 0h216.787v183.871H0z"/></clipPath></defs></svg>