<?xml version="1.0" encoding="UTF-8"?> <svg xmlns="http://www.w3.org/2000/svg" xmlns:xlink="http://www.w3.org/1999/xlink" version="1.1" id="Laag_1" x="0px" y="0px" viewBox="0 0 65.8 10.8" style="enable-background:new 0 0 65.8 10.8;" xml:space="preserve"> <style type="text/css"> .st0{fill:#FFFFFF;} .st1{fill:#FBBA00;} </style> <path class="st0" d="M63,10c0,0.1,0,0.3,0,0.4c0,0.2-0.3,0.4-0.5,0.3c-0.3-0.1-0.7-0.3-1-0.5c-0.4-0.3-0.8-0.6-1.2-0.9 c-0.4-0.2-0.9,0-1.1,0.1c-0.7,0.3-1.3,0.6-2,0.9c-0.2,0.1-0.4,0.2-0.6,0.2c-0.3,0.1-0.5-0.1-0.6-0.4c0-0.3,0.1-0.6,0.2-0.9 c0.1-0.2,0.1-0.5,0.2-0.8s0.2-0.6,0.2-0.9c0-0.4-0.1-0.8-0.3-1.1c-0.6-0.7-1.2-1.3-1.8-2c-0.1-0.1-0.2-0.2-0.3-0.4 c-0.1-0.2,0-0.3,0.2-0.4c0.1,0,0.1,0,0.2,0c0.8,0,1.6,0,2.4,0.1c0.4,0,0.7,0,1.1,0c0.1,0,0.2,0,0.2-0.1c0.4-1,0.9-2,1.3-3.1 c0-0.1,0.1-0.1,0.1-0.2c0.2-0.3,0.5-0.2,0.6,0.1c0.2,0.4,0.3,0.8,0.5,1.2s0.3,0.8,0.4,1.3c0,0.1,0.1,0.1,0.1,0.2 c0,0.3,0.3,0.4,0.5,0.5c0.4,0.2,0.9,0.3,1.3,0.4c0.7,0.1,1.3,0.2,2,0.3c0.1,0,0.2,0.1,0.4,0.1c0.2,0.1,0.2,0.3,0.1,0.4 C65.4,5,65.2,5.2,65,5.4c-0.5,0.4-1.1,0.9-1.6,1.3c-0.1,0.1-0.1,0.2-0.1,0.3c0,0.6-0.1,1.2-0.1,1.7C63,8.8,63,9.6,63,10"></path> <g> <path class="st1" d="M8.9,10c0,0.1,0,0.3,0,0.4c0,0.2-0.3,0.4-0.5,0.3c-0.4-0.1-0.7-0.3-1-0.5C7,9.9,6.6,9.6,6.2,9.3 c-0.4-0.2-0.9,0-1.1,0.1c-0.7,0.3-1.3,0.6-2,0.9c-0.2,0.1-0.4,0.2-0.6,0.2c-0.3,0.1-0.5-0.1-0.6-0.4c0-0.3,0.1-0.6,0.2-0.9 C2.2,9,2.2,8.7,2.3,8.4c0.1-0.3,0.2-0.6,0.2-0.9c0-0.4-0.1-0.8-0.3-1.1C1.6,5.7,1,5.1,0.4,4.4C0.3,4.3,0.2,4.2,0.1,4 C0,3.8,0.1,3.7,0.3,3.6c0.1,0,0.1,0,0.2,0c0.8,0,1.6,0,2.4,0.1c0.4,0,0.7,0,1.1,0c0.1,0,0.2,0,0.2-0.1c0.4-1,0.9-2,1.3-3.1 c0-0.1,0.1-0.1,0.1-0.2C5.8,0,6.1,0.1,6.2,0.4c0.2,0.4,0.3,0.8,0.5,1.2S7,2.4,7.1,2.9C7.1,3,7.2,3,7.2,3.1c0,0.3,0.3,0.4,0.5,0.5 C8.1,3.8,8.6,3.9,9,4c0.7,0.1,1.3,0.2,2,0.3c0.1,0,0.2,0.1,0.4,0.1c0.2,0.1,0.2,0.3,0.1,0.4c-0.2,0.2-0.4,0.4-0.6,0.6 c-0.5,0.4-1.1,0.9-1.6,1.3C9.2,6.8,9.2,6.9,9.2,7c0,0.6-0.1,1.2-0.1,1.7C8.9,8.8,8.9,9.6,8.9,10"></path> <path class="st1" d="M22.4,10c0,0.1,0,0.3,0,0.4c0,0.2-0.3,0.4-0.5,0.3c-0.3-0.1-0.7-0.3-1-0.5c-0.4-0.3-0.8-0.6-1.2-0.9 c-0.4-0.2-0.9,0-1.1,0.1c-0.7,0.3-1.3,0.6-2,0.9c-0.2,0.1-0.4,0.2-0.6,0.2c-0.3,0.1-0.5-0.1-0.6-0.4c0-0.3,0.1-0.6,0.2-0.9 c0.1-0.2,0.1-0.5,0.2-0.8C15.9,8.1,16,7.8,16,7.5c0-0.4-0.1-0.8-0.3-1.1c-0.6-0.7-1.2-1.3-1.8-2c-0.1-0.1-0.2-0.2-0.3-0.4 c-0.1-0.2,0-0.3,0.2-0.4c0.1,0,0.1,0,0.2,0c0.8,0,1.6,0,2.4,0.1c0.4,0,0.7,0,1.1,0c0.1,0,0.2,0,0.2-0.1c0.4-1,0.9-2,1.3-3.1 c0-0.1,0.1-0.1,0.1-0.2c0.2-0.3,0.5-0.2,0.6,0.1c0.2,0.4,0.3,0.8,0.5,1.2s0.3,0.8,0.4,1.3c0,0.1,0.1,0.1,0.1,0.2 c0,0.3,0.3,0.4,0.5,0.5c0.4,0.2,0.9,0.3,1.3,0.4c0.7,0.1,1.3,0.2,2,0.3c0.1,0,0.2,0.1,0.4,0.1c0.2,0.1,0.2,0.3,0.1,0.4 c-0.2,0.2-0.4,0.4-0.6,0.6c-0.5,0.4-1.1,0.9-1.6,1.3c-0.1,0.1-0.1,0.2-0.1,0.3c0,0.6-0.1,1.2-0.1,1.7C22.4,8.8,22.4,9.6,22.4,10"></path> <path class="st1" d="M35.9,10c0,0.1,0,0.3,0,0.4c0,0.2-0.3,0.4-0.5,0.3c-0.3-0.1-0.7-0.3-1-0.5c-0.4-0.3-0.8-0.6-1.2-0.9 c-0.4-0.2-0.9,0-1.1,0.1c-0.7,0.3-1.3,0.6-2,0.9c-0.2,0.1-0.4,0.2-0.6,0.2c-0.3,0.1-0.5-0.1-0.6-0.4c0-0.3,0.1-0.6,0.2-0.9 c0.1-0.2,0.1-0.5,0.2-0.8s0.2-0.6,0.2-0.9c0-0.4-0.1-0.8-0.3-1.1c-0.6-0.7-1.2-1.3-1.8-2c-0.1-0.1-0.2-0.2-0.3-0.4 c-0.1-0.2,0-0.3,0.2-0.4c0.1,0,0.1,0,0.2,0c0.8,0,1.6,0,2.4,0.1c0.4,0,0.7,0,1.1,0c0.1,0,0.2,0,0.2-0.1c0.4-1,0.9-2,1.3-3.1 c0-0.1,0.1-0.1,0.1-0.2c0.2-0.3,0.5-0.2,0.6,0.1c0.2,0.4,0.3,0.8,0.5,1.2s0.3,0.8,0.4,1.3c0,0.1,0.1,0.1,0.1,0.2 c0,0.3,0.3,0.4,0.5,0.5C35.1,3.8,35.6,3.9,36,4c0.7,0.1,1.3,0.2,2,0.3c0.1,0,0.2,0.1,0.4,0.1c0.2,0.1,0.2,0.3,0.1,0.4 c-0.2,0.2-0.4,0.4-0.6,0.6c-0.5,0.4-1.1,0.9-1.6,1.3c-0.1,0.1-0.1,0.2-0.1,0.3c0,0.6-0.1,1.2-0.1,1.7C35.9,8.8,35.9,9.6,35.9,10"></path> <path class="st1" d="M49.4,10c0,0.1,0,0.3,0,0.4c0,0.2-0.3,0.4-0.5,0.3c-0.3-0.1-0.7-0.3-1-0.5c-0.4-0.3-0.8-0.6-1.2-0.9 c-0.4-0.2-0.9,0-1.1,0.1c-0.7,0.3-1.3,0.6-2,0.9c-0.2,0.1-0.4,0.2-0.6,0.2c-0.3,0.1-0.5-0.1-0.6-0.4c0-0.3,0.1-0.6,0.2-0.9 c0.1-0.2,0.1-0.5,0.2-0.8S43,7.8,43,7.5c0-0.4-0.1-0.8-0.3-1.1c-0.6-0.7-1.2-1.3-1.8-2c-0.1-0.1-0.2-0.2-0.3-0.4 c-0.1-0.2,0-0.3,0.2-0.4c0.1,0,0.1,0,0.2,0c0.8,0,1.6,0,2.4,0.1c0.4,0,0.7,0,1.1,0c0.1,0,0.2,0,0.2-0.1c0.4-1,0.9-2,1.3-3.1 c0-0.1,0.1-0.1,0.1-0.2c0.2-0.3,0.5-0.2,0.6,0.1c0.2,0.4,0.3,0.8,0.5,1.2s0.3,0.8,0.4,1.3c0,0.1,0.1,0.1,0.1,0.2 c0,0.3,0.3,0.4,0.5,0.5c0.4,0.2,0.9,0.3,1.3,0.4c0.7,0.1,1.3,0.2,2,0.3c0.1,0,0.2,0.1,0.4,0.1c0.2,0.1,0.2,0.3,0.1,0.4 c-0.2,0.2-0.4,0.4-0.6,0.6c-0.5,0.4-1.1,0.9-1.6,1.3c-0.1,0.1-0.1,0.2-0.1,0.3c0,0.6-0.1,1.2-0.1,1.7C49.4,8.8,49.4,9.6,49.4,10"></path> </g> <path class="st1" d="M59.9,0.2c-0.1,0-0.1,0.1-0.2,0.2c0,0.1-0.1,0.1-0.1,0.2c-0.4,1.1-0.9,2.1-1.3,3.1c0,0.1-0.1,0.1-0.2,0.1 c-0.4,0-0.7,0-1.1,0c-0.8-0.1-1.6-0.1-2.4-0.1c-0.1,0-0.1,0-0.2,0c-0.2,0.1-0.3,0.2-0.2,0.4c0.1,0.2,0.2,0.3,0.3,0.4 c0.6,0.7,1.2,1.3,1.8,2c0.2,0.3,0.3,0.7,0.3,1.1c0,0.3-0.1,0.6-0.2,0.9c-0.1,0.3-0.1,0.6-0.2,0.8C56.1,9.5,56,9.8,56,10.1 c0.1,0.3,0.3,0.5,0.6,0.4c0.2,0,0.4-0.1,0.6-0.2c0.7-0.3,1.3-0.6,2-0.9c0.1-0.1,0.4-0.2,0.7-0.2V0.2z"></path> </svg> 