<svg id="Layer_1" xmlns="http://www.w3.org/2000/svg" viewBox="0 0 371.9 46.1"><style>.st0{fill:#285aa0}</style><path class="st0" d="M8.8 20.8c2.2-3.1 4.7-4.4 7.9-4.4 3.6 0 6.7 1.6 8.4 5.3 1.7-3.5 5-5.3 8.4-5.3 6.3 0 8.4 4.6 8.4 11.1v17.8h-8.8V31.9c0-2.9.1-7.6-3.6-7.6-4 0-4.2 4.3-4.2 7.6v13.3h-8.8V31.9c0-3.1 0-7.8-3.9-7.8s-3.9 4.7-3.9 7.8v13.3H0V17.3h8.8v3.5zm64.6 24.4h-8.8v-3.1h-.1c-1.5 2.8-4.6 4-7.5 4-7.3 0-12.5-6.9-12.5-14.9s5.1-14.9 12.4-14.9c2.8 0 5.8 1.2 7.7 3.6v-2.7h8.8v28zM53.6 31.3c0 3.5 2.1 6.3 5.6 6.3 3.6 0 5.6-2.7 5.6-6.3 0-3.4-2.1-6.3-5.6-6.3-3.5-.1-5.6 2.8-5.6 6.3m32.4-4l9.1-10h12L94.7 30.2l13.2 15H95.6L86 33.8v11.4h-8.8V0H86z"/><path class="st0" d="M132.5 32.9H114c0 4 1.9 6.2 5.5 6.2 1.9 0 3.2-.7 4.2-2.6h8.4c-1.4 6.6-6.9 9.6-12.6 9.6-8.2 0-14.3-5.2-14.3-14.9 0-9.3 5.6-14.9 13.7-14.9 8.6 0 13.5 6 13.5 15.5v1.1zm-8.2-5.7c-.4-2.7-2.6-4.4-5-4.4-2.6 0-4.7 1.5-5.2 4.4h10.2zM135.8 0h8.8v45.2h-8.8zm40.9 45.2H168v-3.1h-.1c-1.5 2.8-4.6 4-7.5 4-7.3 0-12.5-6.9-12.5-14.9s5.1-14.9 12.4-14.9c2.8 0 5.8 1.2 7.7 3.6v-2.7h8.8v28zM157 31.3c0 3.5 2.1 6.3 5.6 6.3 3.6 0 5.6-2.7 5.6-6.3 0-3.4-2.1-6.3-5.6-6.3-3.6-.1-5.6 2.8-5.6 6.3m52 13.9h-8.8v-3.1h-.1c-1.5 2.8-4.6 4-7.5 4-7.3 0-12.5-6.9-12.5-14.9s5.1-14.9 12.4-14.9c2.8 0 5.8 1.2 7.7 3.6v-2.7h8.8v28zm-19.8-13.9c0 3.5 2.1 6.3 5.6 6.3 3.6 0 5.6-2.7 5.6-6.3 0-3.4-2.1-6.3-5.6-6.3-3.5-.1-5.6 2.8-5.6 6.3m33.7-9.5c1.8-3.4 4.7-5 8.1-5h1.7v9.5c-1.2-.8-2.4-.9-3.7-.9-4.9 0-6.1 3.6-6.1 8.4v11.3h-8.8V17.3h8.8v4.5zm27.4 2.7c-1.3-.8-3.2-1.4-4.7-1.4-1 0-2.8.5-2.8 1.9 0 1.9 2.8 2.2 4 2.4 4.1.9 7.2 3.1 7.2 8.3 0 7.3-5.9 10.4-11.7 10.4-3.5 0-7-1.1-10-3.2l3.2-6.9c1.8 1.4 4.8 2.8 6.9 2.8 1.1 0 2.7-.6 2.7-2.1 0-2.2-2.7-2.3-5.5-3.1-2.7-.8-5.5-2.3-5.5-7.4 0-6.9 5.5-9.9 10.9-9.9 2.8 0 5.6.5 8.1 1.8l-2.8 6.4zM257.4 0h8.8v45.2h-8.8zm40.2 45.2h-8.8v-3.1h-.1c-1.5 2.8-4.6 4-7.5 4-7.3 0-12.5-6.9-12.5-14.9s5.1-14.9 12.4-14.9c2.8 0 5.8 1.2 7.7 3.6v-2.7h8.8v28zm-19.7-13.9c0 3.5 2.1 6.3 5.6 6.3 3.6 0 5.6-2.7 5.6-6.3 0-3.4-2.1-6.3-5.6-6.3-3.6-.1-5.6 2.8-5.6 6.3m33-10.4c2.1-3.4 4.6-4.5 8-4.5 6.7 0 9.3 4.7 9.3 11.6v17.3h-8.8V31.6c0-2.7.4-7.3-4-7.3-3.6 0-4.6 3-4.6 6.5v14.5H302v-28h8.8v3.6zm39.7 21.2c-1.6 2.8-4.7 4-7.6 4-7.3 0-12.5-6.9-12.5-14.9s5.1-14.9 12.4-14.9c2.8 0 5.8 1.2 7.7 3.6V0h8.8v45.2h-8.8v-3.1zm-11-10.8c0 3.5 2.1 6.3 5.6 6.3 3.6 0 5.6-2.7 5.6-6.3 0-3.4-2.1-6.3-5.6-6.3-3.5-.1-5.6 2.8-5.6 6.3m32.3-26.5c0 1.3-.5 2.4-1.4 3.3-.9.9-2 1.4-3.3 1.4-1.3 0-2.4-.5-3.3-1.4-.9-.9-1.4-2-1.4-3.3 0-.7.1-1.4.4-2 .3-.6.7-1.2 1.2-1.6.9-.7 1.8-1.1 2.9-1.1.7 0 1.4.1 2 .4.8.4 1.5.9 2 1.7.7.8.9 1.7.9 2.6m-4.7-4c-1.1 0-2 .4-2.7 1.2-.8.8-1.1 1.7-1.1 2.8 0 1.1.4 2 1.1 2.8.8.8 1.7 1.2 2.8 1.2 1.1 0 2-.4 2.8-1.2.8-.8 1.1-1.7 1.1-2.8 0-.6-.1-1.2-.4-1.8-.3-.6-.7-1.1-1.2-1.4-.8-.6-1.5-.8-2.4-.8m.5 4.4l1.8 2.3h-1.3l-1.6-2.1v2.1h-1V2.1h1.1c.8 0 1.3.1 1.7.4.4.3.6.7.6 1.2 0 .3-.1.7-.3.9-.3.3-.6.5-1 .6zm-1.1-.7h.2c.7 0 1.1-.3 1.1-.8s-.4-.7-1.1-.7h-.2v1.5z"/></svg>